# xmcd
#
# Track frame offsets:
#	150
#	28166
#	47520
#	65154
#	85166
#	106870
#	133322
#	155642
#	178944
#	201900
#
# Disc length: 2923 seconds
#
# Revision: 1
# Processed by: cddbd v1.5.2PL0 Copyright (c) Steve Scherf et al.
# Submitted via: EZCDAudioConverter 8.0.2.1
#
DISCID=910b690a
DTITLE=Thanh Hà, Quang Dũng - Biển Nhớ. Xin Còn Gọi Tên Nhau
DYEAR=2009
DGENRE=Miscellaneous
TTITLE0=Thanh Hà, Quang Dũng - Biển nhớ
TTITLE1=Quang Dũng - Tình yêu ơi
TTITLE2=Quang Dũng - Gợi giắc mơ xưa
TTITLE3=Thanh Hà - Nhớ mùa thu Hà Nội
TTITLE4=Quang Dũng - Còn đó chút hồng phai
TTITLE5=Quang Dũng - Trái tim tội lỗi
TTITLE6=Quang Dũng - Hạ Trắng
TTITLE7=Thanh Hà - Trái tim ăn năn
TTITLE8=Quang Dũng - Lá đổ muôn chiều
TTITLE9=Quang Dũng - Vì yêu
EXTD=
EXTT0=
EXTT1=
EXTT2=
EXTT3=
EXTT4=
EXTT5=
EXTT6=
EXTT7=
EXTT8=
EXTT9=
PLAYORDER=
